<svg xmlns="http://www.w3.org/2000/svg" width="86.135" height="19.2" viewBox="0 0 86.135 19.2"><g transform="translate(42.361 3)"><path d="M174.381,186.468h3.785l2.367-14.736h-3.784Z" transform="translate(-159.979 -171.732)" fill="#191b73"/><path d="M25.244,171.733l-5.951,14.72H15.288l-2.921-10.9A3.975,3.975,0,0,0,10.235,173c-.078-.037-.157-.074-.235-.109q.168-.584.366-1.154h3.05a2.474,2.474,0,0,1,2.463,1.9l1.278,6.249c0-.013-.011-.027-.016-.039l.389,1.9,3.709-10.012v0Z" transform="translate(-10 -171.731)" fill="#191b73"/><path d="M375.346,172.251h-2.928a1.877,1.877,0,0,0-1.979,1.185l-5.622,13.506h3.972l1.094-2.924h4.445l.568,2.935h1.579a22.17,22.17,0,0,0,1.03-4.306Zm-4.362,8.816c.079,0,1.525-4.772,1.525-4.772l1.153,4.772Z" transform="translate(-333.73 -172.205)" fill="#191b73"/><path d="M252.246,177.935c-1.323-.653-2.134-1.094-2.134-1.762.016-.607.686-1.23,2.181-1.23a6.588,6.588,0,0,1,2.819.546l.343.153.515-3.083a9.553,9.553,0,0,0-3.4-.607c-3.738,0-6.37,1.943-6.386,4.723-.031,2.051,1.884,3.189,3.318,3.872,1.464.7,1.963,1.154,1.963,1.777-.016.956-1.184,1.4-2.274,1.4a7.7,7.7,0,0,1-3.552-.759l-.5-.227-.529,3.2a11.823,11.823,0,0,0,4.221.761c3.972,0,6.557-1.914,6.59-4.876C255.438,180.2,254.428,178.953,252.246,177.935Z" transform="translate(-224.059 -171.933)" fill="#191b73"/></g><circle cx="9.5" cy="9.5" r="9.5" transform="translate(0 0.2)" fill="#ee0005"/><ellipse cx="9.6" cy="9.6" rx="9.6" ry="9.6" transform="translate(11.927)" fill="#f9a000"/></svg>