<svg xmlns="http://www.w3.org/2000/svg" width="21.548" height="25.8" viewBox="0 0 21.548 25.8"><g transform="translate(0.001)"><path d="M61.679,6.666a8.864,8.864,0,0,0,.067-1.083A5.582,5.582,0,0,0,56.163,0H46.833a1.2,1.2,0,0,0-1.185,1L42.21,21.435a1.2,1.2,0,0,0,1.185,1.4h3.412a1.211,1.211,0,0,0,1.195-1l.016-.095h0l-.475,2.826A1.059,1.059,0,0,0,48.587,25.8h2.985a1.059,1.059,0,0,0,1.045-.884l.848-5.04a1.8,1.8,0,0,1,1.779-1.505h.784a7.712,7.712,0,0,0,7.712-7.712A4.892,4.892,0,0,0,61.679,6.666Z" transform="translate(-42.194)" fill="#002987"/><path d="M162.206,132.28a8.79,8.79,0,0,1-8.722,7.705h-2.6a1.306,1.306,0,0,0-1.254.945l-1.556,9.249a1.059,1.059,0,0,0,1.045,1.235H152.1a1.059,1.059,0,0,0,1.045-.884l.848-5.04a1.8,1.8,0,0,1,1.779-1.505h.784a7.712,7.712,0,0,0,7.712-7.712h0A4.892,4.892,0,0,0,162.206,132.28Z" transform="translate(-142.722 -125.614)" fill="#0085cc"/><path d="M180.487,122.914h2.6a8.79,8.79,0,0,0,8.722-7.705,4.875,4.875,0,0,0-2.836-.906h-6.8a1.585,1.585,0,0,0-1.563,1.322l-1.385,8.234A1.306,1.306,0,0,1,180.487,122.914Z" transform="translate(-172.328 -108.543)" fill="#00186a"/></g></svg>