<svg xmlns="http://www.w3.org/2000/svg" width="20.93" height="20.869" viewBox="0 0 20.93 20.869">
    <path d="M20.318,13.551a3.3,3.3,0,0,1-.7-.126,9.914,9.914,0,0,1-1.376-.41,2.1,2.1,0,0,0-2.6,1.05l-.231.473a12.792,12.792,0,0,1-2.794-2.1,12.792,12.792,0,0,1-2.1-2.794l.441-.294A2.1,2.1,0,0,0,12,6.745a10.849,10.849,0,0,1-.41-1.376c-.053-.231-.095-.473-.126-.714A3.151,3.151,0,0,0,8.313,2.04H5.162A3.151,3.151,0,0,0,2.011,5.621a19.955,19.955,0,0,0,17.35,17.287h.4a3.143,3.143,0,0,0,3.151-3.161V16.6A3.151,3.151,0,0,0,20.318,13.551Zm.525,6.3a1.05,1.05,0,0,1-.357.788,1.1,1.1,0,0,1-.861.263A17.855,17.855,0,0,1,4.175,5.38a1.145,1.145,0,0,1,.263-.861,1.05,1.05,0,0,1,.788-.357H8.376a1.05,1.05,0,0,1,1.05.83q.063.431.158.851a11.679,11.679,0,0,0,.483,1.628L8.6,8.153a1.05,1.05,0,0,0-.515,1.4A15.218,15.218,0,0,0,15.434,16.9a1.113,1.113,0,0,0,1.4-.546l.651-1.47a14.379,14.379,0,0,0,1.659.483q.42.095.851.158a1.05,1.05,0,0,1,.83,1.05Z"
          transform="translate(-1.982 -2.04)" fill="#828282"/>
</svg>
