<svg id="Layer_1" height="512" viewBox="0 0 512 512" width="512" xmlns="http://www.w3.org/2000/svg" data-name="Layer 1">
    <path d="m254.46 101.68-59.16 77.87a30.115 30.115 0 0 0 -6.3 18.01v267.93a26.391 26.391 0 0 0 .74 5.125 30.036 30.036 0 0 0 29.76 24.385h30a30.036 30.036 0 0 1 -29.76-24.385 26.391 26.391 0 0 1 -.74-5.125v-267.93a30.115 30.115 0 0 1 6.3-18.01l59.16-77.87a29.751 29.751 0 0 1 23.94-11.68h-30a29.751 29.751 0 0 0 -23.94 11.68z"
          fill="#d4e1f4"/>
    <path d="m192.207 142.9 61.848-31.944-5.506-10.662-61.849 31.94a34.711 34.711 0 0 0 -15.274 15.722l-110.187 229.464a34.544 34.544 0 0 0 16.167 46.037l109.971 52.807 5.195-10.817-109.972-52.808a22.527 22.527 0 0 1 -10.544-30.025l5.424-11.294 109.707 52.68 5.195-10.817-109.706-52.683 99.569-207.352a22.645 22.645 0 0 1 9.962-10.248z"
          fill="#1ae5be"/>
    <path d="m157.086 280.447 2.555-5.755a6 6 0 1 0 -10.967-4.869l-2.555 5.755a6 6 0 1 0 10.967 4.869z" fill="#1ae5be"/>
    <path d="m146.328 289.894a6 6 0 0 0 -7.918 3.05l-22.718 51.185a6 6 0 1 0 10.969 4.871l22.718-51.185a6 6 0 0 0 -3.051-7.921z"
          fill="#1ae5be"/>
    <g fill="#0635c9">
        <path d="m388 98.072a35.956 35.956 0 0 0 -28.734-14.072h-34.266v-67.489a6 6 0 0 0 -12 0v67.489h-34.6a35.956 35.956 0 0 0 -28.735 14.072l-59.151 77.922a36.121 36.121 0 0 0 -7.514 21.566v267.929c0 19.851 16.65 35.511 36.5 35.511h198.666a35.483 35.483 0 0 0 35.834-35.511v-267.929a35.782 35.782 0 0 0 -7.182-21.566zm30.166 390.928h-198.666c-13.233 0-24.5-10.277-24.5-23.511v-13.489h33a6 6 0 0 0 0-12h-33v-242.44a24.4 24.4 0 0 1 5.093-14.458l59.026-77.8a24.138 24.138 0 0 1 19.281-9.302h34.6v21.388a23.244 23.244 0 1 0 12 0v-21.388h34.266a23.9 23.9 0 0 1 19.157 9.3l58.817 77.923a23.712 23.712 0 0 1 4.76 14.337v242.44h-174a6 6 0 0 0 0 12h174v13.489a23.472 23.472 0 0 1 -23.834 23.511zm-100.491-360.34a5.949 5.949 0 0 0 2.318 0 11.308 11.308 0 1 1 -2.318 0z"/>
        <path d="m416 247a6 6 0 0 0 -6-6h-182a6 6 0 0 0 -6 6v154a6 6 0 0 0 6 6h182a6 6 0 0 0 6-6zm-12 148h-170v-142h170z"/>
        <path d="m297.085 321.844a19.593 19.593 0 1 0 -19.593-19.593 19.615 19.615 0 0 0 19.593 19.593zm0-27.186a7.593 7.593 0 1 1 -7.593 7.593 7.6 7.6 0 0 1 7.593-7.593z"/>
        <path d="m340.582 326.156a19.593 19.593 0 1 0 19.594 19.593 19.615 19.615 0 0 0 -19.594-19.593zm0 27.186a7.593 7.593 0 1 1 7.594-7.593 7.6 7.6 0 0 1 -7.594 7.593z"/>
        <path d="m284.276 358.558a6 6 0 0 0 8.485 0l60.63-60.63a6 6 0 0 0 -8.485-8.486l-60.63 60.63a6 6 0 0 0 0 8.486z"/>
    </g>
</svg>
